<svg width="62" height="62" viewBox="0 0 62 62" fill="none" xmlns="http://www.w3.org/2000/svg">
<path d="M23.0056 24.5559L29.114 21.5017C29.714 21.1972 30.337 21.045 30.9831 21.045C31.6292 21.045 32.2634 21.1972 32.8856 21.5017L38.994 24.5559V6.17919H23.0056V24.5559ZM17.5273 48.085C16.5029 48.085 15.6445 47.7392 14.9523 47.0475C14.2606 46.3553 13.9148 45.5003 13.9148 44.4825C13.9148 43.4653 14.2606 42.6106 14.9523 41.9184C15.6445 41.2267 16.5029 40.8809 17.5273 40.8809H27.4073C28.4167 40.8809 29.2679 41.2272 29.9606 41.92C30.6534 42.6128 30.9998 43.4636 30.9998 44.4725C30.9998 45.497 30.6534 46.3553 29.9606 47.0475C29.2679 47.7392 28.4167 48.085 27.4073 48.085H17.5273ZM6.17896 61.4984C4.64563 61.4984 3.31619 60.9353 2.19063 59.8092C1.06452 58.6836 0.501465 57.3542 0.501465 55.8209V6.17919C0.501465 4.6403 1.06452 3.30613 2.19063 2.17669C3.31619 1.04669 4.64563 0.481689 6.17896 0.481689H55.8206C57.3595 0.481689 58.6937 1.04669 59.8231 2.17669C60.9531 3.30613 61.5181 4.6403 61.5181 6.17919V55.8209C61.5181 57.3542 60.9531 58.6836 59.8231 59.8092C58.6937 60.9353 57.3595 61.4984 55.8206 61.4984H6.17896ZM6.17896 55.8209H55.8206V6.17919H44.5323V28.875C44.5323 29.96 44.0903 30.7806 43.2065 31.3367C42.3226 31.8922 41.404 31.9214 40.4506 31.4242L30.9998 26.75L21.549 31.4242C20.5956 31.9214 19.677 31.8922 18.7931 31.3367C17.9092 30.7806 17.4673 29.96 17.4673 28.875V6.17919H6.17896V55.8209Z" fill="black"/>
</svg>
