<svg width="21" height="19" viewBox="0 0 21 19" fill="none" xmlns="http://www.w3.org/2000/svg">
<path d="M9.40437 0.612343C9.74812 -0.204115 10.9189 -0.204114 11.2626 0.612346L13.2914 5.43123C13.4364 5.77543 13.7641 6.01061 14.1402 6.0404L19.4062 6.45748C20.2984 6.52814 20.6602 7.62813 19.9804 8.2034L15.9683 11.5987C15.6817 11.8412 15.5565 12.2218 15.6441 12.5843L16.8698 17.661C17.0775 18.5211 16.1304 19.201 15.3665 18.7401L10.858 16.0196C10.536 15.8252 10.131 15.8252 9.80897 16.0196L5.30048 18.7401C4.53661 19.201 3.58945 18.5211 3.79713 17.661L5.02292 12.5843C5.11047 12.2218 4.98532 11.8412 4.69875 11.5987L0.686558 8.2034C0.00677833 7.62813 0.368564 6.52814 1.26079 6.45748L6.52685 6.0404C6.903 6.01061 7.23065 5.77543 7.37556 5.43123L9.40437 0.612343Z" fill="#EABE30"/>
</svg>
